<?xml version="1.0" encoding="UTF-8" standalone="no"?>
<!-- Created with Inkscape (http://www.inkscape.org/) -->

<svg
   xmlns:dc="http://purl.org/dc/elements/1.1/"
   xmlns:cc="http://creativecommons.org/ns#"
   xmlns:rdf="http://www.w3.org/1999/02/22-rdf-syntax-ns#"
   xmlns:svg="http://www.w3.org/2000/svg"
   xmlns="http://www.w3.org/2000/svg"
   xmlns:sodipodi="http://sodipodi.sourceforge.net/DTD/sodipodi-0.dtd"
   xmlns:inkscape="http://www.inkscape.org/namespaces/inkscape"
   width="215.85522"
   height="216.00851"
   id="svg2"
   version="1.1"
   inkscape:version="0.48.2 r9819"
   sodipodi:docname="New document 1">
  <defs
     id="defs4" />
  <sodipodi:namedview
     id="base"
     pagecolor="#ffffff"
     bordercolor="#666666"
     borderopacity="1.0"
     inkscape:pageopacity="0.0"
     inkscape:pageshadow="2"
     inkscape:zoom="0.70710678"
     inkscape:cx="41.27648"
     inkscape:cy="93.418118"
     inkscape:document-units="px"
     inkscape:current-layer="layer1"
     showgrid="false"
     fit-margin-top="0"
     fit-margin-left="0"
     fit-margin-right="0"
     fit-margin-bottom="0"
     inkscape:window-width="1440"
     inkscape:window-height="878"
     inkscape:window-x="1280"
     inkscape:window-y="0"
     inkscape:window-maximized="1" />
  <metadata
     id="metadata7">
    <rdf:RDF>
      <cc:Work
         rdf:about="">
        <dc:format>image/svg+xml</dc:format>
        <dc:type
           rdf:resource="http://purl.org/dc/dcmitype/StillImage" />
        <dc:title></dc:title>
      </cc:Work>
    </rdf:RDF>
  </metadata>
  <g
     inkscape:label="Layer 1"
     inkscape:groupmode="layer"
     id="layer1"
     transform="translate(-231.97692,-5.6295001)">
    <g
       id="g3816"
       transform="matrix(2.7307824,-0.23089094,0.23089094,2.7307824,-1229.7593,-759.25838)">
      <rect
         transform="matrix(0.89639763,-0.44325081,0.43055757,0.90256312,0,0)"
         y="542.10785"
         x="305.19934"
         height="53.557209"
         width="56.585102"
         id="rect3778"
         style="fill:none;stroke:#d78924;stroke-width:2.41910672;stroke-miterlimit:4;stroke-opacity:1;stroke-dasharray:none" />
      <g
         transform="translate(96,-4.5)"
         id="g3794">
        <path
           style="fill:#2f8fbb;fill-opacity:1;stroke:#000000;stroke-width:1px;stroke-linecap:butt;stroke-linejoin:miter;stroke-opacity:1"
           d="m 456.60714,339.10325 c -4.54096,4.47582 -0.28266,12.18642 -1.91964,17.99107 -1.4309,5.07391 -6.78571,14.28572 -6.78571,14.28572 0,0 10.57387,-8.02161 13.70535,-13.66072 1.92772,-3.4714 2.99316,-7.64889 2.67857,-11.60714 -0.22266,-2.8015 -0.85965,-6.27526 -3.16963,-7.8125 -1.06542,-0.70901 -3.19408,-0.49243 -4.50894,0.80357 z"
           id="path2998"
           inkscape:connector-curvature="0"
           sodipodi:nodetypes="sacaass" />
        <path
           sodipodi:type="arc"
           style="fill:#2f8fbb;fill-opacity:1;stroke:#000000;stroke-opacity:1"
           id="path3000"
           sodipodi:cx="448.16965"
           sodipodi:cy="347.80862"
           sodipodi:rx="6.3839288"
           sodipodi:ry="6.1607141"
           d="m 454.55358,347.80862 c 0,3.40247 -2.85819,6.16072 -6.38393,6.16072 -3.52575,0 -6.38393,-2.75825 -6.38393,-6.16072 0,-3.40246 2.85818,-6.16071 6.38393,-6.16071 3.52574,0 6.38393,2.75825 6.38393,6.16071 z"
           transform="translate(-0.57142871,-2)" />
      </g>
      <g
         id="g3798"
         transform="matrix(0.05670471,0.99839099,-0.99839099,0.05670471,889.85989,-101.76822)">
        <path
           sodipodi:nodetypes="sacaass"
           inkscape:connector-curvature="0"
           id="path3800"
           d="m 456.60714,339.10325 c -4.54096,4.47582 -0.28266,12.18642 -1.91964,17.99107 -1.4309,5.07391 -6.78571,14.28572 -6.78571,14.28572 0,0 10.57387,-8.02161 13.70535,-13.66072 1.92772,-3.4714 2.99316,-7.64889 2.67857,-11.60714 -0.22266,-2.8015 -0.85965,-6.27526 -3.16963,-7.8125 -1.06542,-0.70901 -3.19408,-0.49243 -4.50894,0.80357 z"
           style="fill:#2f8fbb;fill-opacity:1;stroke:#000000;stroke-width:1px;stroke-linecap:butt;stroke-linejoin:miter;stroke-opacity:1" />
        <path
           transform="translate(-0.57142871,-2)"
           d="m 454.55358,347.80862 c 0,3.40247 -2.85819,6.16072 -6.38393,6.16072 -3.52575,0 -6.38393,-2.75825 -6.38393,-6.16072 0,-3.40246 2.85818,-6.16071 6.38393,-6.16071 3.52574,0 6.38393,2.75825 6.38393,6.16071 z"
           sodipodi:ry="6.1607141"
           sodipodi:rx="6.3839288"
           sodipodi:cy="347.80862"
           sodipodi:cx="448.16965"
           id="path3802"
           style="fill:#2f8fbb;fill-opacity:1;stroke:#000000;stroke-opacity:1"
           sodipodi:type="arc" />
      </g>
      <g
         transform="matrix(-1,0,0,-1,991.55458,738.28064)"
         id="g3804">
        <path
           style="fill:#2f8fbb;fill-opacity:1;stroke:#000000;stroke-width:1px;stroke-linecap:butt;stroke-linejoin:miter;stroke-opacity:1"
           d="m 456.60714,339.10325 c -4.54096,4.47582 -0.28266,12.18642 -1.91964,17.99107 -1.4309,5.07391 -6.78571,14.28572 -6.78571,14.28572 0,0 10.57387,-8.02161 13.70535,-13.66072 1.92772,-3.4714 2.99316,-7.64889 2.67857,-11.60714 -0.22266,-2.8015 -0.85965,-6.27526 -3.16963,-7.8125 -1.06542,-0.70901 -3.19408,-0.49243 -4.50894,0.80357 z"
           id="path3806"
           inkscape:connector-curvature="0"
           sodipodi:nodetypes="sacaass" />
        <path
           sodipodi:type="arc"
           style="fill:#2f8fbb;fill-opacity:1;stroke:#000000;stroke-opacity:1"
           id="path3808"
           sodipodi:cx="448.16965"
           sodipodi:cy="347.80862"
           sodipodi:rx="6.3839288"
           sodipodi:ry="6.1607141"
           d="m 454.55358,347.80862 c 0,3.40247 -2.85819,6.16072 -6.38393,6.16072 -3.52575,0 -6.38393,-2.75825 -6.38393,-6.16072 0,-3.40246 2.85818,-6.16071 6.38393,-6.16071 3.52574,0 6.38393,2.75825 6.38393,6.16071 z"
           transform="translate(-0.57142871,-2)" />
      </g>
      <g
         id="g3810"
         transform="matrix(0,-1,1,0,172.26352,814.20621)">
        <path
           sodipodi:nodetypes="sacaass"
           inkscape:connector-curvature="0"
           id="path3812"
           d="m 456.60714,339.10325 c -4.54096,4.47582 -0.28266,12.18642 -1.91964,17.99107 -1.4309,5.07391 -6.78571,14.28572 -6.78571,14.28572 0,0 10.57387,-8.02161 13.70535,-13.66072 1.92772,-3.4714 2.99316,-7.64889 2.67857,-11.60714 -0.22266,-2.8015 -0.85965,-6.27526 -3.16963,-7.8125 -1.06542,-0.70901 -3.19408,-0.49243 -4.50894,0.80357 z"
           style="fill:#2f8fbb;fill-opacity:1;stroke:#000000;stroke-width:1px;stroke-linecap:butt;stroke-linejoin:miter;stroke-opacity:1" />
        <path
           transform="translate(-0.57142871,-2)"
           d="m 454.55358,347.80862 c 0,3.40247 -2.85819,6.16072 -6.38393,6.16072 -3.52575,0 -6.38393,-2.75825 -6.38393,-6.16072 0,-3.40246 2.85818,-6.16071 6.38393,-6.16071 3.52574,0 6.38393,2.75825 6.38393,6.16071 z"
           sodipodi:ry="6.1607141"
           sodipodi:rx="6.3839288"
           sodipodi:cy="347.80862"
           sodipodi:cx="448.16965"
           id="path3814"
           style="fill:#2f8fbb;fill-opacity:1;stroke:#000000;stroke-opacity:1"
           sodipodi:type="arc" />
      </g>
    </g>
  </g>
</svg>
